<svg width="291" height="32" viewBox="0 0 291 32" fill="none" xmlns="http://www.w3.org/2000/svg">
<g opacity="0.2">
<path d="M0 30.6398H8.02541L9.91622 25.26H20.3787L22.2275 30.6398H30.3789L19.1602 0.630448H11.2188L0 30.6398ZM15.1264 8.95238H15.2105L18.5299 19.4599H11.723L15.1264 8.95238Z" fill="black"/>
<path d="M32.5681 30.6398H39.9212V11.9365H40.0053L50.4257 30.6398H58.4511V0.630448H51.098V19.1236H51.014L40.5935 0.630448H32.5681V30.6398Z" fill="black"/>
<path d="M60.729 30.6398H68.7544L70.6452 25.26H81.1076L82.9564 30.6398H91.1079L79.8891 0.630448H71.9477L60.729 30.6398ZM75.8554 8.95238H75.9394L79.2588 19.4599H72.4519L75.8554 8.95238Z" fill="black"/>
<path d="M93.3811 30.6398H101.196V21.3932L104.39 18.0308L112.457 30.6398H122.163L109.684 12.4409L120.777 0.630448H111.071L101.196 12.1467V0.630448H93.3811V30.6398Z" fill="black"/>
<path d="M124.525 30.6398H146.332V23.915H132.341V0.630448H124.525V30.6398Z" fill="black"/>
<path d="M150.212 30.6398H174.54V23.915H158.027V18.199H172.734V12.1467H158.027V6.89291H174.12V0.630448H150.212V30.6398Z" fill="black"/>
<path d="M179.312 30.6398H182.169V16.3496H196.54V13.9119H182.169V3.06819H198.346V0.630448H179.312V30.6398Z" fill="black"/>
<path d="M202.091 30.6398H204.948V0.630448H202.091V30.6398Z" fill="black"/>
<path d="M211.195 30.6398H230.859V28.2021H214.052V0.630448H211.195V30.6398Z" fill="black"/>
<path d="M233.679 30.6398H236.536V4.70735H236.62L246.915 30.6398H249.604L259.856 4.70735H259.94V30.6398H262.797V0.630448H258.596L248.259 26.9412L237.881 0.630448H233.679V30.6398Z" fill="black"/>
<path d="M267.252 20.7628C266.916 28.076 272.126 31.2703 279.227 31.2703C289.857 31.2703 290.698 24.7556 290.698 22.6962C290.698 17.8207 287.168 15.9293 282.924 14.7945L275.613 12.9872C273.134 12.4409 271.075 11.222 271.075 8.40599C271.075 3.95081 274.689 2.43774 278.597 2.43774C282.882 2.43774 286.58 4.79141 286.79 9.33064H289.647C289.647 3.15224 284.521 0 278.555 0C270.109 0 268.218 5.50592 268.218 8.44802C268.218 13.1554 271.453 14.7945 274.983 15.6772L281.664 17.3163C284.479 17.9888 287.84 19.3338 287.84 22.7382C287.84 27.1093 283.05 28.8325 279.899 28.8325C274.395 28.8325 269.983 26.9412 270.109 20.7628H267.252Z" fill="black"/>
</g>
</svg>
