<svg width="175" height="31" viewBox="0 0 175 31" fill="none" xmlns="http://www.w3.org/2000/svg">
<path d="M0 30.1121H8.04112L9.93563 24.7139H20.4186L22.271 30.1121H30.4384L19.1977 0H11.2407L0 30.1121ZM15.156 8.35042H15.2402L18.5661 18.8939H11.7459L15.156 8.35042Z" fill="black"/>
<path d="M32.6319 30.1121H39.9994V11.3448H40.0836L50.5244 30.1121H58.5655V0H51.198V18.5565H51.1138L40.673 0H32.6319V30.1121Z" fill="black"/>
<path d="M60.8478 30.1121H68.8889L70.7834 24.7139H81.2664L83.1188 30.1121H91.2862L80.0455 0H72.0885L60.8478 30.1121ZM76.0039 8.35042H76.0881L79.414 18.8939H72.5938L76.0039 8.35042Z" fill="black"/>
<path d="M93.5639 30.1121H101.395V20.8339L104.594 17.46L112.677 30.1121H122.402L109.899 11.8508L121.013 0H111.288L101.395 11.5556V0H93.5639V30.1121Z" fill="black"/>
<path d="M124.769 30.1121H146.619V23.3643H132.6V0H124.769V30.1121Z" fill="black"/>
<path d="M150.506 30.1121H174.882V23.3643H158.337V17.6287H173.072V11.5556H158.337V6.2839H174.461V0H150.506V30.1121Z" fill="black"/>
</svg>
