<svg width="279" height="32" viewBox="0 0 279 32" fill="none" xmlns="http://www.w3.org/2000/svg">
<g opacity="0.2">
<path d="M0 31.3548H8.04544L9.94096 25.8495H20.4295L22.2829 31.3548H30.4547L19.208 0.645161H11.2468L0 31.3548ZM15.1642 9.16129H15.2484L18.5761 19.914H11.7522L15.1642 9.16129Z" fill="black"/>
<path d="M32.6494 31.3548H40.0208V12.2151H40.1051L50.5515 31.3548H58.597V0.645161H51.2255V19.5699H51.1412L40.6948 0.645161H32.6494V31.3548Z" fill="black"/>
<path d="M60.8805 31.3548H68.9259L70.8214 25.8495H81.31L83.1634 31.3548H91.3352L80.0884 0.645161H72.1272L60.8805 31.3548ZM76.0446 9.16129H76.1289L79.4566 19.914H72.6327L76.0446 9.16129Z" fill="black"/>
<path d="M93.6141 31.3548H101.449V21.8925L104.65 18.4516L112.738 31.3548H122.468L109.958 12.7312L121.078 0.645161H111.348L101.449 12.4301V0.645161H93.6141V31.3548Z" fill="black"/>
<path d="M124.836 31.3548H146.698V24.4731H132.671V0.645161H124.836V31.3548Z" fill="black"/>
<path d="M150.587 31.3548H174.976V24.4731H158.421V18.6237H173.164V12.4301H158.421V7.05376H174.554V0.645161H150.587V31.3548Z" fill="black"/>
<path d="M179.76 31.3548H199.473V28.8602H182.624V0.645161H179.76V31.3548Z" fill="black"/>
<path d="M212.662 3.56989L218.475 19.3118H206.638L212.662 3.56989ZM199.056 31.3548H202.131L205.754 21.8065H219.444L223.108 31.3548H226.183L214.389 0.645161H211.188L199.056 31.3548Z" fill="black"/>
<path d="M231.781 3.13979H241.637C246.145 3.13979 248.419 5.07527 248.419 8.90323C248.419 11.7849 246.187 14.1075 241.637 14.1075H231.781V3.13979ZM228.916 31.3548H241.637C251.41 31.3548 252.421 25.5484 252.421 22.6237C252.421 18.6237 249.936 15.6559 246.06 15.1398V15.0538C249.177 14.3656 251.284 11.3978 251.284 8.17204C251.284 2.45161 246.692 0.645161 241.637 0.645161H228.916V31.3548ZM231.781 16.6021H241.637C246.692 16.6021 249.557 18.5806 249.557 22.5376C249.557 27.5269 245.892 28.8602 241.637 28.8602H231.781V16.6021Z" fill="black"/>
<path d="M255.496 21.2473C255.159 28.7312 260.382 32 267.501 32C278.158 32 279 25.3333 279 23.2258C279 18.2366 275.462 16.3011 271.207 15.1398L263.878 13.2903C261.393 12.7312 259.329 11.4839 259.329 8.60215C259.329 4.04301 262.951 2.49462 266.869 2.49462C271.165 2.49462 274.872 4.90323 275.083 9.54839H277.947C277.947 3.22581 272.808 0 266.827 0C258.36 0 256.464 5.63441 256.464 8.64516C256.464 13.4624 259.708 15.1398 263.246 16.043L269.944 17.7204C272.766 18.4086 276.136 19.7849 276.136 23.2688C276.136 27.7419 271.334 29.5054 268.174 29.5054C262.656 29.5054 258.234 27.5699 258.36 21.2473H255.496Z" fill="black"/>
</g>
</svg>
