<svg width="189" height="32" viewBox="0 0 189 32" fill="none" xmlns="http://www.w3.org/2000/svg">
<g opacity="0.2">
<path d="M7.83307 7.35524H11.539C16.9295 7.35524 19.8354 9.96109 19.8354 15.467C19.8354 21.4773 17.477 23.7889 11.539 23.915H7.83307V7.35524ZM0 30.6398H12.9288C22.0674 30.6398 27.6684 25.344 27.6684 15.509C27.6684 6.22043 22.1516 0.630448 12.9288 0.630448H0V30.6398Z" fill="black"/>
<path d="M41.8939 6.89291H48.1266C50.3165 6.89291 52.0853 7.90163 52.0853 10.1292C52.0853 12.4409 50.8219 13.6597 48.4635 13.6597H41.8939V6.89291ZM34.0608 30.6398H41.8939V19.712H47.8318C51.5378 19.712 52.001 22.8223 52.2116 25.8484C52.338 26.731 52.4222 29.5891 53.096 30.6398H60.8448C59.792 29.463 59.7078 25.1759 59.5814 23.873C59.3709 21.015 58.3602 17.4845 55.2017 16.6859V16.6018C58.4023 15.383 59.9183 12.3148 59.9183 9.07847C59.9183 3.02616 54.6542 0.630448 49.39 0.630448H34.0608V30.6398Z" fill="black"/>
<path d="M73.2548 15.6351C73.2548 11.1379 75.192 6.72479 80.2456 6.72479C85.2992 6.72479 87.2364 11.1379 87.2364 15.6351C87.2364 20.1323 85.2992 24.5455 80.2456 24.5455C75.192 24.5455 73.2548 20.1323 73.2548 15.6351ZM65.4217 15.6351C65.4217 24.3353 70.8122 31.2703 80.2456 31.2703C89.679 31.2703 95.0695 24.3353 95.0695 15.6351C95.0695 6.93494 89.679 0 80.2456 0C70.8122 0 65.4217 6.93494 65.4217 15.6351Z" fill="black"/>
<path d="M126.499 0.630448H118.329L112.434 22.9483H112.349L106.454 0.630448H98.2836L107.759 30.6398H116.771L126.499 0.630448Z" fill="black"/>
<path d="M155.913 0.630448H147.743L141.847 22.9483H141.763L135.867 0.630448H127.697L137.173 30.6398H146.185L155.913 0.630448Z" fill="black"/>
<path d="M166.965 15.6351C166.965 11.1379 168.902 6.72479 173.956 6.72479C179.009 6.72479 180.947 11.1379 180.947 15.6351C180.947 20.1323 179.009 24.5455 173.956 24.5455C168.902 24.5455 166.965 20.1323 166.965 15.6351ZM159.132 15.6351C159.132 24.3353 164.523 31.2703 173.956 31.2703C183.389 31.2703 188.78 24.3353 188.78 15.6351C188.78 6.93494 183.389 0 173.956 0C164.523 0 159.132 6.93494 159.132 15.6351Z" fill="black"/>
</g>
</svg>
